<svg width="95" height="101" viewBox="0 0 95 101" fill="none" xmlns="http://www.w3.org/2000/svg">
<path d="M93.7741 23.2202V22.3272V21.4341H92.881V20.541V19.6479H91.988V18.7548H91.0949V17.8617V16.9686H90.2018V16.0755V15.1825H89.3087V14.2894V13.3963H90.2018V12.5032V11.6101H89.3087V12.5032H88.4156V13.3963H87.5225V14.2894H86.6294V15.1825V16.0755H85.7363V16.9686V17.8617H84.8433V18.7548V19.6479V20.541V21.4341V22.3272H85.7363V23.2202V24.1133H86.6294V25.0064V25.8995H87.5225V26.7926V27.6857H88.4156V28.5788V29.4719V30.3649H87.5225V31.258V32.1511H86.6294V33.0442V33.9373H85.7363V34.8304V35.7235H84.8433V36.6166V37.5096H85.7363V36.6166H86.6294V35.7235H87.5225V34.8304H88.4156V33.9373H89.3087V33.0442H90.2018V32.1511H91.0949V31.258H91.988V30.3649H92.881V29.4719H93.7741V28.5788V27.6857H94.6672V26.7926V25.8995V25.0064V24.1133V23.2202H93.7741Z" fill="#F2F2F2"/>
<path d="M88.4157 51.7991V49.1198H87.5226V46.4405H86.6295V44.6544H85.7364V43.7613H84.8433V41.9751H83.9502V40.1889H83.0571V39.2958H82.164V38.4028H81.271V37.5097H80.3779V36.6166H79.4848V35.7235H78.5917V34.8304H77.6986V33.9373H75.9124V33.0442H74.1263V32.1511H72.3401V31.2581H68.7677V32.1511H70.5539V33.0442H71.447V33.9373H72.3401V35.7235H73.2332V39.2958H72.3401V41.082H71.447V41.9751H69.6608V42.8682H64.3023V41.9751H62.5161V41.082H59.8369V39.2958H58.9438V38.4028H58.0507V37.5097H57.1576V33.9373H58.0507V31.2581H58.9438V29.4719H59.8369V28.5788H61.623V27.6857H65.1954V26.7926H66.9816V25.8995H67.8746V25.0064H68.7677V24.1134H69.6608V22.3272H70.5539V16.9687H69.6608V14.2894H68.7677V11.6101H67.8746V9.82396H66.9816V8.03779H66.0885V6.25161H65.1954V5.35852H64.3023V4.46544H63.4092V3.57235H62.5161V2.67926H60.7299V3.57235H61.623V4.46544H62.5161V6.25161H63.4092V8.93087H64.3023V10.717H63.4092V12.5032H62.5161V13.3963H60.7299V14.2894H57.1576V10.717H56.2645V8.93087H55.3714V7.1447H54.4783V5.35852H53.5852V4.46544H52.6922V3.57235H51.7991V2.67926H50.906V1.78617H50.0129V0.893087H48.2267V0H42.8682V0.893087H40.1889V1.78617H38.4028V2.67926H36.6166V3.57235H35.7235V4.46544H34.8304V6.25161H33.9373V8.03779H33.0442V11.6101H33.9373V9.82396H34.8304V8.93087H36.6166V8.03779H39.2958V7.1447H43.7613V8.03779H45.5475V8.93087H46.4405V10.717H47.3336V17.8617H46.4405V19.6479H45.5475V20.541H43.7613V21.4341H40.1889V20.541H38.4028V19.6479H37.5097V16.0756H38.4028V15.1825H39.2958V14.2894H37.5097V15.1825H35.7235V16.9687H34.8304V21.4341H35.7235V23.2203H36.6166V24.1134H37.5097V25.0064H38.4028V25.8995H39.2958V26.7926H41.082V27.6857H41.9751V28.5788H42.8682V29.4719H43.7613V31.2581H44.6544V33.9373H43.7613V35.7235H42.8682V36.6166H41.082V37.5097H34.8304V36.6166H33.0442V35.7235H31.2581V34.8304H29.4719V33.9373H27.6857V33.0442H25.8995V32.1511H25.0064V31.2581H24.1134V30.365H23.2203V29.4719H22.3272V28.5788H21.4341V26.7926H20.541V25.0064H19.6479V22.3272H18.7548V17.8617H19.6479V16.0756H20.541V15.1825H21.4341V14.2894H22.3272V13.3963H19.6479V14.2894H17.8617V15.1825H16.0756V16.0756H15.1825V16.9687H14.2894V17.8617H13.3963V19.6479H12.5032V22.3272H11.6101V27.6857H12.5032V28.5788H13.3963V29.4719H11.6101V28.5788H9.82396V27.6857H8.03779V26.7926H7.1447V25.0064H6.25161V23.2203H5.35852V19.6479H6.25161V17.8617H7.1447V16.9687H8.93087V16.0756H6.25161V16.9687H5.35852V17.8617H4.46544V18.7548H3.57235V19.6479H2.67926V20.541H1.78617V22.3272H0.893087V24.1134H0V28.5788H0.893087V30.365H1.78617V32.1511H2.67926V33.9373H4.46544V34.8304H5.35852V35.7235H6.25161V36.6166H7.1447V38.4028H8.03779V39.2958H9.82396V40.1889H10.717V41.9751H11.6101V45.5475H10.717V46.4405H8.93087V47.3336H6.25161V46.4405H4.46544V45.5475H2.67926V44.6544H1.78617V42.8682H0.893087V41.082H0V50.906H0.893087V54.4783H1.78617V58.0507H2.67926V60.7299H3.57235V64.3023H4.46544V66.0885H5.35852V67.8746H6.25161V69.6608H7.1447V70.5539H8.03779V71.447H8.93087V72.3401H9.82396V73.2332H10.717V74.1263H11.6101V75.0193H13.3963V75.9124H14.2894V76.8055H16.0756V77.6986H17.8617V78.5917H19.6479V79.4848H21.4341V80.3779H23.2203V81.271H24.1134V82.164H25.8995V83.0571H27.6857V83.9502H28.5788V84.8433H30.365V85.7364H31.2581V86.6295H33.0442V87.5226H33.9373V88.4157H34.8304V89.3087H35.7235V90.2018H36.6166V91.0949H37.5097V91.988H38.4028V92.8811H39.2958V93.7742H40.1889V95.5604H41.082V99.1327H41.9751V100.026H42.8682V100.919H48.2267V100.026H49.1198V99.1327H50.0129V95.5604H50.906V93.7742H51.7991V92.8811H52.6922V91.988H53.5852V91.0949H54.4783V90.2018H55.3714V89.3087H56.2645V88.4157H57.1576V87.5226H58.0507V86.6295H59.8369V85.7364H60.7299V84.8433H62.5161V83.9502H63.4092V83.0571H65.1954V82.164H66.9816V81.271H67.8746V80.3779H69.6608V79.4848H71.447V78.5917H73.2332V77.6986H75.0193V76.8055H76.8055V75.9124H77.6986V75.0193H79.4848V74.1263H80.3779V73.2332H81.271V72.3401H83.0571V71.447H83.9502V70.5539H84.8433V69.6608H85.7364V67.8746H86.6295V66.0885H87.5226V63.4092H88.4157V60.7299H89.3087V52.6922H88.4157V51.7991ZM58.0507 82.164V83.0571H57.1576V83.9502H56.2645V84.8433H55.3714V85.7364H54.4783V86.6295H53.5852V87.5226H52.6922V88.4157H51.7991V89.3087H50.906V90.2018H50.0129V91.0949H49.1198V91.988H48.2267V93.7742H47.3336V96.4534H46.4405V98.2396H44.6544V96.4534H43.7613V93.7742H42.8682V91.988H41.9751V91.0949H41.082V90.2018H40.1889V89.3087H39.2958V88.4157H38.4028V87.5226H37.5097V86.6295H36.6166V85.7364H35.7235V84.8433H34.8304V83.9502H33.9373V83.0571H33.0442V82.164H32.1511V81.271H31.2581V80.3779H30.365V79.4848H29.4719V78.5917H28.5788V77.6986H27.6857V76.8055H26.7926V75.9124H25.8995V75.0193H25.0064V74.1263H24.1134V73.2332H23.2203V72.3401H22.3272V71.447H21.4341V69.6608H20.541V66.9816H19.6479V58.9438H20.541V56.2645H21.4341V54.4783H22.3272V52.6922H23.2203V50.906H24.1134V50.0129H25.8995V49.1198H27.6857V48.2267H30.365V47.3336H34.8304V48.2267H37.5097V49.1198H39.2958V50.0129H41.082V50.906H41.9751V51.7991H42.8682V53.5852H43.7613V54.4783H44.6544V56.2645H46.4405V54.4783H47.3336V53.5852H48.2267V51.7991H49.1198V50.906H50.0129V50.0129H51.7991V49.1198H53.5852V48.2267H56.2645V47.3336H60.7299V48.2267H63.4092V49.1198H65.1954V50.0129H66.9816V50.906H67.8746V52.6922H68.7677V54.4783H69.6608V56.2645H70.5539V58.9438H71.447V66.9816H70.5539V69.6608H69.6608V71.447H68.7677V72.3401H67.8746V73.2332H66.9816V74.1263H66.0885V75.0193H65.1954V75.9124H64.3023V76.8055H63.4092V77.6986H62.5161V78.5917H61.623V79.4848H60.7299V80.3779H59.8369V81.271H58.9438V82.164H58.0507Z" fill="#F2F2F2"/>
<path d="M58.9434 76.8056H59.8364V75.9125H60.7295V75.0194H61.6226V74.1263V73.2332H62.5157V72.3401V71.447H63.4088V70.554V69.6609V68.7678V67.8747V66.9816V66.0885V65.1954H62.5157V64.3024V63.4093H61.6226V62.5162H60.7295V61.6231H59.8364V60.73H58.9434H58.0503V59.8369H57.1572H56.2641H55.371H54.4779H53.5848H52.6917V60.73H51.7987H50.9056V61.6231H50.0125H49.1194V62.5162H48.2263V63.4093H47.3332V64.3024V65.1954H46.4401V66.0885V66.9816H45.547H44.654V66.0885V65.1954H43.7609V64.3024V63.4093H42.8678V62.5162H41.9747V61.6231H41.0816H40.1885V60.73H39.2954H38.4023V59.8369H37.5093H36.6162H35.7231H34.83H33.9369H33.0438V60.73H32.1507H31.2577V61.6231H30.3646V62.5162H29.4715V63.4093H28.5784V64.3024V65.1954H27.6853V66.0885V66.9816V67.8747V68.7678V69.6609V70.554V71.447H28.5784V72.3401V73.2332H29.4715V74.1263V75.0194H30.3646V75.9125H31.2577V76.8056H32.1507V77.6987H33.0438V78.5917H33.9369V79.4848H34.83V80.3779H35.7231V81.271H36.6162V82.1641H37.5093V83.0572H38.4023V83.9503H39.2954V84.8434H40.1885V85.7364H41.0816V86.6295H41.9747V87.5226H42.8678V88.4157H43.7609V89.3088H44.654V90.2019V91.095H45.547H46.4401V90.2019V89.3088H47.3332V88.4157H48.2263V87.5226H49.1194V86.6295H50.0125V85.7364H50.9056V84.8434H51.7987V83.9503H52.6917V83.0572H53.5848V82.1641H54.4779V81.271H55.371V80.3779H56.2641V79.4848H57.1572V78.5917H58.0503V77.6987H58.9434V76.8056Z" fill="#F2F2F2"/>
</svg>
