<svg width="101" height="101" viewBox="0 0 101 101" fill="none" xmlns="http://www.w3.org/2000/svg">
<path d="M99.1327 37.5097H97.3465V36.6166H91.988V35.7235H86.6295V34.8304H81.2709V33.9373H80.3779V33.0442H81.2709V32.1511H82.164V31.2581H83.0571V30.365H83.9502V29.4719H84.8433V28.5788H85.7364V27.6857H86.6295V26.7926H87.5226V25.8995H88.4156V25.0064H89.3087V24.1134H90.2018V23.2203H91.0949V22.3272H91.988V21.4341H92.8811V20.541H93.7742V19.6479H94.6673V18.7548H95.5603V17.8617H96.4534V16.0756H93.7742V16.9687H91.988V17.8617H90.2018V18.7548H88.4156V19.6479H86.6295V20.541H84.8433V21.4341H82.164V22.3272H80.3779V23.2203H78.5917V24.1134H76.8055V25.0064H75.0193V25.8995H74.1262V22.3272H75.0193V18.7548H75.9124V15.1825H76.8055V11.6101H77.6986V8.03779H78.5917V5.35852H76.8055V6.25161H75.9124V7.1447H74.1262V8.03779H73.2332V8.93087H72.3401V9.82396H71.447V10.717H70.5539V11.6101H68.7677V12.5032H67.8746V13.3963H66.9815V14.2894H66.0885V15.1825H64.3023V16.0756H63.4092V16.9687H62.5161V17.8617H61.623V18.7548H60.7299V19.6479H58.9438V20.541H58.0507V16.9687H57.1576V13.3963H56.2645V9.82396H55.3714V6.25161H54.4783V2.67926H53.5852V0H51.7991V2.67926H50.906V8.03779H50.0129V12.5032H49.1198V17.8617H48.2267V18.7548H47.3336V17.8617H46.4405V16.9687H45.5475V16.0756H44.6544V15.1825H43.7613V14.2894H41.9751V13.3963H41.082V12.5032H40.1889V11.6101H39.2958V10.717H37.5097V9.82396H36.6166V8.93087H35.7235V8.03779H34.8304V7.1447H33.0442V6.25161H32.1511V5.35852H30.365V8.03779H29.4719V13.3963H28.5788V16.0756H27.6857V15.1825H26.7926V13.3963H25.8995V12.5032H25.0064V11.6101H24.1134V10.717H23.2203V9.82396H22.3272V8.93087H21.4341V8.03779H20.541V7.1447H19.6479V6.25161H18.7548V4.46544H17.8617V3.57235H16.9687V2.67926H16.0756V1.78617H15.1825V0.893087H14.2894V0H12.5032V2.67926H13.3963V6.25161H14.2894V8.93087H15.1825V11.6101H16.0756V15.1825H16.9687V17.8617H17.8617V21.4341H18.7548V24.1134H19.6479V26.7926H20.541V30.365H18.7548V29.4719H9.82396V28.5788H3.57235V30.365H4.46544V31.2581H5.35852V33.0442H6.25161V33.9373H7.1447V34.8304H8.03779V35.7235H8.93087V36.6166H9.82396V38.4028H10.717V39.2958H11.6101V40.1889H12.5032V41.082H13.3963V41.9751H14.2894V43.7613H15.1825V44.6544H16.0756V45.5475H11.6101V46.4405H7.1447V47.3336H2.67926V48.2267H0V50.0129H1.78617V50.906H4.46544V51.7991H7.1447V52.6922H9.82396V53.5852H12.5032V54.4783H15.1825V55.3714H17.8617V56.2645H20.541V58.0507H19.6479V58.9438H18.7548V60.7299H17.8617V61.623H16.9687V62.5161H16.0756V64.3023H15.1825V65.1954H14.2894V66.9815H13.3963V67.8746H12.5032V69.6608H11.6101V70.5539H10.717V72.3401H9.82396V73.2332H8.93087V74.1262H8.03779V75.9124H7.1447V76.8055H6.25161V78.5917H5.35852V80.3779H11.6101V81.2709H23.2203V82.164H25.0064V83.0571H24.1134V83.9502H23.2203V84.8433H22.3272V85.7364H21.4341V86.6295H20.541V87.5226H19.6479V88.4156H18.7548V89.3087H17.8617V90.2018H16.9687V91.0949H16.0756V91.988H15.1825V92.8811H14.2894V93.7742H13.3963V94.6673H12.5032V96.4534H15.1825V95.5603H16.9687V94.6673H18.7548V93.7742H21.4341V92.8811H23.2203V91.988H25.0064V91.0949H27.6857V90.2018H29.4719V89.3087H31.2581V88.4156H33.9373V87.5226H35.7235V86.6295H37.5097V85.7364H38.4028V87.5226H39.2958V89.3087H40.1889V91.0949H41.082V92.8811H41.9751V94.6673H42.8682V96.4534H43.7613V98.2396H44.6544V100.026H46.4405V99.1327H47.3336V98.2396H48.2267V97.3465H49.1198V96.4534H50.0129V95.5603H50.906V94.6673H51.7991V93.7742H52.6922V92.8811H53.5852V91.988H54.4783V91.0949H55.3714V90.2018H56.2645V89.3087H57.1576V88.4156H58.0507V87.5226H58.9438V86.6295H59.8369V85.7364H60.7299V84.8433H61.623V83.9502H62.5161V83.0571H63.4092V83.9502H64.3023V85.7364H65.1954V87.5226H66.0885V89.3087H66.9815V90.2018H67.8746V91.988H68.7677V93.7742H69.6608V95.5603H70.5539V97.3465H71.447V98.2396H73.2332V94.6673H72.3401V90.2018H71.447V85.7364H70.5539V81.2709H71.447V82.164H73.2332V83.0571H75.9124V83.9502H77.6986V84.8433H80.3779V85.7364H82.164V86.6295H83.9502V87.5226H86.6295V88.4156H88.4156V89.3087H91.0949V86.6295H90.2018V83.9502H89.3087V82.164H88.4156V79.4848H87.5226V76.8055H86.6295V74.1262H85.7364V71.447H84.8433V69.6608H83.9502V66.9815H83.0571V64.3023H82.164V62.5161H83.0571V60.7299H83.9502V59.8369H84.8433V58.9438H85.7364V57.1576H86.6295V56.2645H87.5226V55.3714H88.4156V53.5852H89.3087V52.6922H90.2018V51.7991H91.0949V50.0129H91.988V49.1198H92.8811V48.2267H93.7742V46.4405H94.6673V45.5475H95.5603V44.6544H96.4534V42.8682H97.3465V41.9751H98.2396V41.082H99.1327V39.2958H100.026V37.5097H99.1327ZM69.6608 25.8995V29.4719H68.7677V33.0442H67.8746V35.7235H66.9815V37.5097H66.0885V38.4028H65.1954V39.2958H64.3023V40.1889H63.4092V41.082H62.5161V41.9751H61.623V42.8682H60.7299V43.7613H59.8369V44.6544H58.9438V45.5475H58.0507V46.4405H57.1576V47.3336H56.2645V48.2267H55.3714V49.1198H56.2645V50.0129H57.1576V50.906H58.0507V51.7991H58.9438V52.6922H59.8369V53.5852H60.7299V54.4783H61.623V55.3714H62.5161V56.2645H63.4092V57.1576H64.3023V58.0507H65.1954V58.9438H66.0885V59.8369H67.8746V58.9438H68.7677V58.0507H69.6608V57.1576H70.5539V56.2645H72.3401V57.1576H73.2332V58.0507H74.1262V59.8369H73.2332V60.7299H72.3401V61.623H71.447V62.5161H70.5539V63.4092H69.6608V64.3023H68.7677V65.1954H69.6608V66.0885H70.5539V66.9815H71.447V67.8746H72.3401V68.7677H73.2332V69.6608H74.1262V70.5539H75.0193V71.447H75.9124V72.3401H76.8055V73.2332H77.6986V74.1262H78.5917V75.0193H77.6986V75.9124H76.8055V76.8055H75.0193V75.9124H74.1262V75.0193H73.2332V74.1262H72.3401V73.2332H71.447V72.3401H70.5539V71.447H69.6608V70.5539H68.7677V69.6608H67.8746V68.7677H66.9815V67.8746H66.0885V66.9815H65.1954V67.8746H64.3023V68.7677H63.4092V69.6608H62.5161V70.5539H61.623V71.447H59.8369V70.5539H58.9438V69.6608H58.0507V68.7677H58.9438V67.8746H59.8369V66.9815H60.7299V66.0885H61.623V65.1954H60.7299V64.3023H59.8369V63.4092H58.9438V62.5161H58.0507V61.623H57.1576V60.7299H56.2645V59.8369H55.3714V58.9438H54.4783V58.0507H53.5852V57.1576H52.6922V56.2645H51.7991V55.3714H50.906V54.4783H50.0129V53.5852H49.1198V54.4783H48.2267V55.3714H47.3336V56.2645H46.4405V57.1576H45.5475V58.0507H44.6544V58.9438H43.7613V59.8369H42.8682V60.7299H41.9751V61.623H41.082V62.5161H40.1889V63.4092H39.2958V64.3023H40.1889V69.6608H39.2958V71.447H38.4028V70.5539H37.5097V69.6608H36.6166V68.7677H35.7235V67.8746H33.9373V68.7677H32.1511V69.6608H31.2581V70.5539H30.365V71.447H29.4719V72.3401H28.5788V73.2332H27.6857V74.1262H26.7926V75.0193H25.8995V75.9124H24.1134V75.0193H23.2203V73.2332H24.1134V72.3401H25.0064V71.447H25.8995V70.5539H26.7926V69.6608H27.6857V68.7677H28.5788V67.8746H29.4719V66.9815H30.365V65.1954H31.2581V63.4092H30.365V62.5161H29.4719V61.623H28.5788V60.7299H27.6857V59.8369H29.4719V58.9438H33.9373V59.8369H34.8304V58.9438H35.7235V58.0507H36.6166V57.1576H37.5097V56.2645H38.4028V55.3714H39.2958V54.4783H40.1889V53.5852H41.082V52.6922H41.9751V51.7991H42.8682V50.906H43.7613V50.0129H44.6544V49.1198H45.5475V48.2267H44.6544V47.3336H43.7613V46.4405H42.8682V45.5475H41.9751V44.6544H41.082V43.7613H40.1889V42.8682H39.2958V41.082H38.4028V39.2958H37.5097V36.6166H36.6166V33.9373H35.7235V27.6857H36.6166V25.8995H37.5097V25.0064H38.4028V24.1134H40.1889V28.5788H41.082V31.2581H41.9751V33.9373H42.8682V35.7235H43.7613V37.5097H44.6544V38.4028H45.5475V39.2958H46.4405V40.1889H47.3336V41.082H48.2267V41.9751H49.1198V42.8682H50.0129V43.7613H50.906V42.8682H51.7991V41.9751H52.6922V41.082H53.5852V40.1889H54.4783V39.2958H55.3714V38.4028H56.2645V37.5097H57.1576V36.6166H58.0507V35.7235H58.9438V34.8304H59.8369V33.9373H60.7299V33.0442H61.623V32.1511H62.5161V31.2581H63.4092V30.365H64.3023V29.4719H65.1954V28.5788H66.0885V27.6857H66.9815V26.7926H67.8746V25.8995H68.7677V25.0064H69.6608V25.8995Z" fill="#F2F2F2"/>
</svg>
