<svg width="392" height="407" viewBox="0 0 392 407" fill="none" xmlns="http://www.w3.org/2000/svg">
<path d="M162.046 109.287V113.056H165.815V116.824H169.583V120.593H173.352H177.12V124.361H180.889H184.657H188.426H192.195H195.963H199.732H203.5H207.269H211.037H214.806V120.593H218.574H222.343V116.824H226.111V113.056H229.88V109.287V105.519H233.648V101.75V97.9815V94.213V90.4444V86.6759V82.9074V79.1389V75.3704H229.88V71.6019V67.8333V64.0648H226.111V60.2963V56.5278H222.343V52.7593V48.9907H218.574V45.2222V41.4537H214.806V37.6852V33.9167H211.037V30.1481V26.3796H207.269V22.6111V18.8426H203.5V15.0741V11.3056H199.732V7.53704V3.76852V0H195.963H192.195V3.76852V7.53704V11.3056H188.426V15.0741V18.8426H184.657V22.6111V26.3796H180.889V30.1481V33.9167H177.12V37.6852V41.4537H173.352V45.2222V48.9907H169.583V52.7593V56.5278H165.815V60.2963V64.0648H162.046V67.8333V71.6019V75.3704H158.278V79.1389V82.9074V86.6759V90.4444V94.213V97.9815V101.75V105.519H162.046V109.287Z" fill="#79CEC0"/>
<path d="M56.5278 177.12V180.889H60.2963V184.657V188.426H64.0648V192.194H67.8334V195.963H71.6019H75.3704H79.1389H82.9074H86.6759H90.4445V192.194V188.426V184.657V180.889V177.12V173.352H86.6759V169.583H82.9074V165.815H79.1389H75.3704V162.046H71.6019H67.8334V158.278H64.0648H60.2963H56.5278H52.7593V162.046V165.815V169.583V173.352H56.5278V177.12Z" fill="#79CEC0"/>
<path d="M309.018 195.963H312.787H316.556H320.324H324.093V192.194H327.861V188.426H331.63V184.657V180.889H335.398V177.12V173.352H339.167V169.583V165.815V162.046V158.278H335.398H331.63H327.861H324.093V162.046H320.324H316.556V165.815H312.787H309.018V169.583H305.25V173.352H301.481V177.12V180.889V184.657V188.426V192.194V195.963H305.25H309.018Z" fill="#79CEC0"/>
<path d="M256.259 218.574V214.806V211.037V207.269V203.5V199.731V195.963H252.491H248.722V192.194V188.426H244.954H241.185H237.417H233.648V184.657V180.889H229.88H226.111H222.343H218.574V177.12V173.352H214.806H211.037H207.269H203.5H199.731H195.963H192.194H188.426H184.657H180.889H177.12H173.352V177.12V180.889H169.583H165.815H162.046H158.278V184.657V188.426H154.509H150.741H146.972H143.204V192.194V195.963H139.435H135.667V199.731V203.5V207.269V211.037V214.806V218.574H131.898H128.13V222.343V226.111V229.88V233.648V237.417V241.185V244.954V248.722V252.491V256.259V260.028V263.796H131.898H135.667V267.565V271.333V275.102V278.87V282.639V286.407H139.435H143.204V290.176V293.944H146.972H150.741H154.509H158.278V297.713V301.481H162.046H165.815H169.583H173.352V305.25V309.019H177.12H180.889H184.657H188.426H192.194H195.963H199.731H203.5H207.269H211.037H214.806H218.574V305.25V301.481H222.343H226.111H229.88H233.648V297.713V293.944H237.417H241.185H244.954H248.722V290.176V286.407H252.491H256.259V282.639V278.87V275.102V271.333V267.565V263.796H260.028H263.796V260.028V256.259V252.491V248.722V244.954V241.185V237.417V233.648V229.88V226.111V222.343V218.574H260.028H256.259Z" fill="#79CEC0"/>
<path d="M94.213 320.324V316.556H90.4445V312.787H86.6759V309.019V305.25H82.9074H79.1389V301.481H75.3704H71.6019V297.713H67.8333H64.0648H60.2963H56.5278H52.7593H48.9907V301.481H45.2222H41.4537V305.25H37.6852V309.019H33.9167V312.787H30.1481V316.556H26.3796V320.324H22.6111V324.093V327.861H18.8426V331.63H15.0741V335.398V339.167H11.3056V342.935V346.704H7.53704V350.472V354.241H3.76852V358.009V361.778H0V365.546V369.315V373.083H3.76852H7.53704H11.3056H15.0741H18.8426H22.6111H26.3796H30.1481H33.9167H37.6852H41.4537H45.2222H48.9907H52.7593H56.5278H60.2963V369.315H64.0648H67.8333H71.6019H75.3704V365.546H79.1389H82.9074V361.778H86.6759V358.009H90.4445H94.213V354.241V350.472H97.9815V346.704V342.935V339.167V335.398V331.63V327.861V324.093H94.213V320.324Z" fill="#79CEC0"/>
<path d="M203.5 361.778V358.009V354.241H199.732H195.963H192.194H188.426V358.009V361.778H184.657H180.889V365.546V369.315V373.083V376.852V380.62V384.389V388.157V391.926H184.657H188.426V395.694V399.463V403.231V407H192.194H195.963H199.732H203.5V403.231V399.463V395.694V391.926H207.269H211.037V388.157V384.389V380.62V376.852V373.083V369.315V365.546V361.778H207.269H203.5Z" fill="#79CEC0"/>
<path d="M388.158 361.778V358.009V354.241H384.389V350.472V346.704H380.621V342.935V339.167H376.852V335.398V331.63H373.083V327.861H369.315V324.093V320.324H365.546V316.556H361.778V312.787H358.009V309.019H354.241V305.25H350.472V301.481H346.704H342.935V297.713H339.167H335.398H331.63H327.861H324.093H320.324V301.481H316.556H312.787V305.25H309.019H305.25V309.019V312.787H301.482V316.556H297.713V320.324V324.093H293.945V327.861V331.63V335.398V339.167V342.935V346.704V350.472H297.713V354.241V358.009H301.482H305.25V361.778H309.019V365.546H312.787H316.556V369.315H320.324H324.093H327.861H331.63V373.083H335.398H339.167H342.935H346.704H350.472H354.241H358.009H361.778H365.546H369.315H373.083H376.852H380.621H384.389H388.158H391.926V369.315V365.546V361.778H388.158Z" fill="#79CEC0"/>
</svg>
