<svg width="102" height="101" viewBox="0 0 102 101" fill="none" xmlns="http://www.w3.org/2000/svg">
<path d="M4.46562 9.8243V10.7174H5.35871V11.6105H6.25179H7.14488V12.5036H8.03797H8.93105V13.3966H9.82414H10.7172H11.6103H12.5034V12.5036H11.6103V11.6105H10.7172V10.7174H9.82414V9.8243H8.93105H8.03797V8.93121H7.14488H6.25179H5.35871H4.46562H3.57253H2.67944V9.8243H3.57253H4.46562Z" fill="#F2F2F2"/>
<path d="M84.8433 23.2203H85.7364V22.3273H86.6295H87.5226H88.4157H89.3087V21.4342H90.2018H91.0949H91.988H92.8811H93.7742V20.5411H94.6673V19.648H95.5604H96.4534V18.7549H97.3465V17.8618H98.2396V16.9687H97.3465V16.0756H96.4534V15.1826H95.5604V14.2895H94.6673V13.3964H93.7742V12.5033H92.8811V13.3964H91.988V14.2895H91.0949V15.1826H90.2018V16.0756H89.3087V16.9687H88.4157V17.8618H87.5226V18.7549H86.6295V19.648H85.7364V20.5411H84.8433V21.4342H83.9502V22.3273H83.0571V23.2203H83.9502H84.8433Z" fill="#F2F2F2"/>
<path d="M11.6103 42.8685V43.7616H10.7172H9.82414V44.6547H8.93105H8.03797H7.14488V45.5478H6.25179H5.35871H4.46562V46.4409V47.334V48.2271H3.57253V49.1201V50.0132V50.9063H2.67944V51.7994V52.6925H3.57253H4.46562V51.7994H5.35871H6.25179H7.14488V50.9063H8.03797H8.93105H9.82414H10.7172V50.0132V49.1201V48.2271H11.6103V47.334V46.4409H12.5034V45.5478V44.6547H13.3965V43.7616V42.8685H12.5034H11.6103Z" fill="#F2F2F2"/>
<path d="M100.919 67.8746V64.3023H100.026V61.623H99.1327V59.8369H98.2396V58.0507H97.3465V57.1576H96.4534V56.2645H95.5604V54.4783H94.6673V53.5852H93.7742V52.6922H92.8811V51.7991H91.988V50.906H90.2018V50.0129H89.3087V49.1198H88.4157V48.2267H86.6295V47.3336H84.8433V46.4405H82.164V45.5475H78.5917V44.6544H68.7677V45.5475H65.1954V46.4405H61.623V44.6544H65.1954V43.7613H68.7677V42.8682H72.3401V41.9751H75.9124V41.082H81.271V40.1889H79.4848V39.2958H77.6986V38.4028H75.9124V37.5097H74.1263V36.6166H72.3401V35.7235H70.5539V34.8304H68.7677V33.9373H66.9816V33.0442H65.1954V32.1511H63.4092V31.2581H62.5161V30.365H63.4092V29.4719H64.3023V28.5788H65.1954V27.6857H66.0885V26.7926H66.9816V25.8995H67.8746V25.0064H68.7677V24.1134H69.6608V23.2203H70.5539V22.3272H71.447V21.4341H72.3401V20.541H73.2332V19.6479H74.1263V18.7548H75.0193V17.8617H75.9124V16.9687H76.8055V16.0756H66.0885V16.9687H56.2645V17.8617H50.906V13.3963H51.7991V5.35852H52.6922V0H51.7991V0.893087H50.906V1.78617H50.0129V2.67926H49.1198V3.57235H48.2267V4.46544H47.3336V5.35852H46.4405V6.25161H45.5475V7.1447H44.6544V8.03779H43.7613V8.93087H42.8682V9.82396H41.9751V10.717H41.082V11.6101H40.1889V12.5032H39.2958V13.3963H38.4028V14.2894H36.6166V13.3963H34.8304V12.5032H33.0442V11.6101H31.2581V10.717H29.4719V9.82396H27.6857V8.93087H25.8995V8.03779H24.1134V7.1447H22.3272V6.25161H20.541V5.35852H18.7548V4.46544H17.8617V6.25161H18.7548V8.93087H19.6479V13.3963H20.541V16.9687H21.4341V21.4341H22.3272V25.0064H23.2203V27.6857H21.4341V28.5788H16.9687V29.4719H12.5032V30.365H8.93087V31.2581H4.46544V32.1511H1.78617V33.0442H0V33.9373H1.78617V34.8304H3.57235V35.7235H5.35852V36.6166H7.1447V37.5097H9.82396V38.4028H11.6101V39.2958H14.2894V40.1889H16.0756V41.082H17.8617V41.9751H18.7548V45.5475H17.8617V49.1198H16.9687V52.6922H16.0756V56.2645H15.1825V59.8369H14.2894V63.4092H16.9687V62.5161H18.7548V61.623H19.6479V60.7299H20.541V59.8369H22.3272V58.9438H23.2203V58.0507H24.1134V57.1576H25.8995V56.2645H26.7926V55.3714H27.6857V54.4783H29.4719V53.5852H30.365V52.6922H31.2581V51.7991H32.1511V50.906H33.0442V55.3714H33.9373V60.7299H34.8304V66.0885H35.7235V68.7677H36.6166V67.8746H37.5097V66.9816H38.4028V66.0885H39.2958V65.1954H40.1889V64.3023H41.082V63.4092H41.9751V62.5161H42.8682V61.623H43.7613V60.7299H44.6544V59.8369H45.5475V58.9438H47.3336V59.8369H48.2267V61.623H47.3336V64.3023H46.4405V67.8746H45.5475V77.6986H46.4405V81.271H47.3336V83.9502H48.2267V85.7364H49.1198V87.5226H50.0129V88.4157H50.906V89.3087H51.7991V91.0949H52.6922V91.988H53.5852V92.8811H54.4783V93.7742H55.3714V94.6673H57.1576V95.5604H58.0507V96.4534H58.9438V97.3465H60.7299V98.2396H62.5161V99.1327H65.1954V100.026H68.7677V100.919H78.5917V100.026H82.164V99.1327H84.8433V98.2396H86.6295V97.3465H88.4157V96.4534H89.3087V95.5604H90.2018V94.6673H91.988V93.7742H92.8811V92.8811H93.7742V91.988H94.6673V91.0949H95.5604V89.3087H96.4534V88.4157H97.3465V87.5226H98.2396V85.7364H99.1327V83.9502H100.026V81.271H100.919V77.6986H101.812V67.8746H100.919ZM99.1327 78.5917V80.3779H98.2396V83.0571H97.3465V84.8433H96.4534V86.6295H95.5604V87.5226H94.6673V88.4157H93.7742V90.2018H92.8811V91.0949H91.988V91.988H91.0949V92.8811H89.3087V93.7742H88.4157V94.6673H87.5226V95.5604H85.7364V96.4534H83.9502V97.3465H81.271V98.2396H77.6986V99.1327H69.6608V98.2396H66.0885V97.3465H63.4092V96.4534H61.623V95.5604H59.8369V94.6673H58.9438V93.7742H58.0507V92.8811H56.2645V91.988H55.3714V91.0949H54.4783V90.2018H53.5852V88.4157H52.6922V87.5226H51.7991V86.6295H50.906V84.8433H50.0129V83.0571H49.1198V80.3779H48.2267V76.8055H47.3336V68.7677H48.2267V65.1954H49.1198V62.5161H50.0129V60.7299H50.906V58.9438H50.0129V58.0507H48.2267V57.1576H47.3336V56.2645H46.4405V55.3714H45.5475V54.4783H44.6544V53.5852H43.7613V52.6922H42.8682V51.7991H43.7613V50.906H44.6544V50.0129H45.5475V49.1198H46.4405V48.2267H47.3336V46.4405H46.4405V45.5475H45.5475V44.6544H44.6544V43.7613H42.8682V42.8682H39.2958V41.9751H37.5097V41.082H35.7235V40.1889H34.8304V38.4028H33.9373V34.8304H34.8304V33.9373H36.6166V35.7235H35.7235V37.5097H36.6166V39.2958H38.4028V40.1889H40.1889V41.082H43.7613V41.9751H45.5475V42.8682H46.4405V43.7613H47.3336V44.6544H48.2267V45.5475H50.0129V44.6544H50.906V43.7613H51.7991V42.8682H52.6922V41.9751H53.5852V41.082H54.4783V41.9751H55.3714V42.8682H56.2645V43.7613H57.1576V44.6544H58.0507V45.5475H58.9438V46.4405H59.8369V48.2267H60.7299V49.1198H63.4092V48.2267H66.0885V47.3336H69.6608V46.4405H77.6986V47.3336H75.9124V48.2267H74.1263V49.1198H72.3401V50.0129H71.447V50.906H70.5539V52.6922H69.6608V55.3714H68.7677V57.1576H67.8746V59.8369H68.7677V60.7299H70.5539V61.623H72.3401V62.5161H73.2332V63.4092H74.1263V60.7299H75.0193V58.0507H75.9124V53.5852H76.8055V50.0129H77.6986V51.7991H78.5917V53.5852H79.4848V55.3714H80.3779V57.1576H81.271V58.0507H82.164V59.8369H84.8433V58.9438H86.6295V58.0507H88.4157V57.1576H90.2018V56.2645H91.988V55.3714H93.7742V57.1576H92.8811V58.9438H91.988V61.623H91.0949V63.4092H90.2018V65.1954H89.3087V66.9816H90.2018V67.8746H91.988V68.7677H93.7742V69.6608H95.5604V70.5539H97.3465V71.447H99.1327V72.3401H95.5604V73.2332H92.8811V74.1263H89.3087V75.0193H86.6295V75.9124H83.9502V81.271H86.6295V82.164H91.988V81.271H94.6673V80.3779H96.4534V79.4848H97.3465V78.5917H98.2396V77.6986H99.1327V78.5917Z" fill="#F2F2F2"/>
<path d="M33.0443 73.2335V72.3404V71.4473V70.5542H32.1512V69.6611V68.768V67.8749V66.9819V66.0888V65.1957H31.2582V66.0888V66.9819V67.8749H30.3651V68.768V69.6611H29.472V70.5542V71.4473V72.3404H28.5789V73.2335V74.1266V75.0196H27.6858V75.9127V76.8058H26.7927V77.6989V78.592H27.6858V79.4851V80.3782H28.5789V81.2712V82.1643H29.472V83.0574H30.3651V82.1643V81.2712H31.2582V80.3782V79.4851H32.1512V78.592V77.6989H33.0443V76.8058V75.9127H33.9374V75.0196V74.1266H33.0443V73.2335Z" fill="#F2F2F2"/>
</svg>
