<svg width="104" height="80" viewBox="0 0 104 80" fill="none" xmlns="http://www.w3.org/2000/svg">
<path d="M102.705 25.0063V25.8993V26.7924H101.812V27.6855V28.5786H100.919V29.4717H100.026V30.3648H99.1328V31.2579H98.2397V32.151H97.3466V33.044H96.4535V33.9371H95.5604H94.6673V34.8302H93.7743H92.8812V35.7233H91.9881H91.095H90.2019V36.6164H89.3088H88.4157H87.5226V35.7233H88.4157H89.3088V34.8302H90.2019H91.095V33.9371H91.9881H92.8812V33.044H93.7743V32.151H94.6673V31.2579H95.5604V30.3648V29.4717H96.4535V28.5786H97.3466V27.6855V26.7924H98.2397V25.8993V25.0063V24.1132H99.1328V23.2201V22.327V21.4339V20.5408V19.6477V18.7547H100.026V17.8616V16.9685V16.0754V15.1823V14.2892V13.3961V12.503V11.61V10.7169H99.1328V9.82378V8.93069V8.0376V7.14452V6.25143V5.35834H98.2397V4.46525V3.57217V2.67908H97.3466V1.78599V0.892904V-0.000183105H96.4535V0.892904V1.78599V2.67908V3.57217V4.46525H95.5604V5.35834V6.25143V7.14452H94.6673V8.0376V8.93069H93.7743V9.82378V10.7169H92.8812V11.61V12.503H91.9881V13.3961V14.2892H91.095V15.1823V16.0754H90.2019V16.9685H89.3088V17.8616H88.4157V18.7547H87.5226V19.6477H86.6296V20.5408H85.7365V21.4339H84.8434V22.327H83.9503H83.0572V23.2201H82.1641V24.1132H81.271H80.3779V25.0063H79.4849V25.8993H78.5918H77.6987V26.7924H76.8056V27.6855H75.9125H75.0194V28.5786V29.4717V30.3648V31.2579V32.151H74.1263V33.044V33.9371V34.8302V35.7233H73.2332V36.6164V37.5095V38.4026V39.2957H72.3402V40.1887V41.0818H71.4471V41.9749V42.868H70.554V43.7611H69.6609V44.6542V45.5473H68.7678V46.4404H67.8747V47.3334V48.2265H66.9816V49.1196H66.0885H65.1955V50.0127H64.3024V50.9058H63.4093V51.7989H62.5162H61.6231V52.692H60.73V53.5851H59.8369H58.9438V54.4781H59.8369V55.3712H60.73V56.2643H61.6231H62.5162V57.1574H63.4093H64.3024V58.0505H65.1955H66.0885V58.9436H66.9816H67.8747V59.8367H68.7678H69.6609H70.554V60.7298H71.4471H72.3402H73.2332V61.6228H74.1263H75.0194H75.9125H76.8056V62.5159H77.6987H78.5918H79.4849H80.3779H81.271H82.1641H83.0572H83.9503V61.6228H84.8434H85.7365H86.6296H87.5226H88.4157V60.7298H89.3088H90.2019H91.095V59.8367H91.9881H92.8812V58.9436H93.7743H94.6673V58.0505H95.5604H96.4535V57.1574H95.5604H94.6673H93.7743H92.8812V56.2643H91.9881H91.095H90.2019V55.3712H89.3088H88.4157H87.5226V54.4781H86.6296H85.7365V53.5851H84.8434H83.9503V52.692H83.0572V51.7989H82.1641H81.271V50.9058H80.3779V50.0127H81.271H82.1641V50.9058H83.0572H83.9503H84.8434H85.7365H86.6296H87.5226H88.4157H89.3088H90.2019V50.0127H91.095H91.9881V49.1196H92.8812H93.7743V48.2265H94.6673V47.3334H95.5604H96.4535V46.4404H97.3466V45.5473H98.2397V44.6542H99.1328V43.7611V42.868H100.026V41.9749H100.919V41.0818V40.1887H101.812V39.2957V38.4026V37.5095V36.6164H102.705V35.7233V34.8302V33.9371V33.044V32.151H103.598V31.2579V30.3648V29.4717V28.5786V27.6855V26.7924V25.8993V25.0063H102.705Z" fill="#F2F2F2"/>
<path d="M33.0442 59.8369H33.9373H34.8304H35.7235V58.9438H36.6166H37.5097V58.0507H38.4028H39.2958V57.1576H40.1889H41.082V56.2645H41.9751H42.8682V55.3714H43.7613V54.4783H44.6544V53.5852H43.7613H42.8682V52.6922H41.9751V51.7991H41.082H40.1889V50.906H39.2958V50.0129H38.4028V49.1198H37.5097H36.6166V48.2267H35.7235V47.3336V46.4405H34.8304V45.5475H33.9373V44.6544V43.7613H33.0442V42.8682H32.1511V41.9751V41.082H31.2581V40.1889V39.2958H30.365V38.4028V37.5097V36.6166V35.7235H29.4719V34.8304V33.9373V33.0442V32.1511H28.5788V31.2581V30.365V29.4719V28.5788V27.6857H27.6857H26.7926V26.7926H25.8995V25.8995H25.0064H24.1134V25.0064H23.2203V24.1134H22.3272H21.4341V23.2203H20.541V22.3272H19.6479H18.7548V21.4341H17.8617V20.541H16.9687V19.6479H16.0756V18.7548H15.1825V17.8617H14.2894V16.9687H13.3963V16.0756H12.5032V15.1825V14.2894H11.6101V13.3963V12.5032H10.717V11.6101V10.717H9.82396V9.82396V8.93087H8.93087V8.03779V7.1447H8.03779V6.25161V5.35852V4.46544H7.1447V3.57235V2.67926V1.78617V0.893087V0H6.25161V0.893087V1.78617V2.67926H5.35852V3.57235V4.46544V5.35852H4.46544V6.25161V7.1447V8.03779V8.93087V9.82396V10.717H3.57235V11.6101V12.5032V13.3963V14.2894V15.1825V16.0756V16.9687V17.8617V18.7548H4.46544V19.6479V20.541V21.4341V22.3272V23.2203V24.1134H5.35852V25.0064V25.8995V26.7926H6.25161V27.6857V28.5788H7.1447V29.4719H8.03779V30.365V31.2581H8.93087V32.1511H9.82396V33.0442H10.717V33.9373H11.6101H12.5032V34.8304H13.3963H14.2894V35.7235H15.1825H16.0756V36.6166H15.1825H14.2894H13.3963V35.7235H12.5032H11.6101H10.717V34.8304H9.82396H8.93087V33.9373H8.03779H7.1447V33.0442H6.25161V32.1511H5.35852V31.2581H4.46544V30.365H3.57235V29.4719H2.67926V28.5788H1.78617V27.6857V26.7926H0.893087V25.8995V25.0064H0V25.8995V26.7926V27.6857V28.5788V29.4719V30.365V31.2581V32.1511H0.893087V33.0442V33.9373V34.8304V35.7235V36.6166H1.78617V37.5097V38.4028V39.2958V40.1889H2.67926V41.082V41.9751H3.57235V42.8682H4.46544V43.7613V44.6544H5.35852V45.5475H6.25161V46.4405H7.1447V47.3336H8.03779H8.93087V48.2267H9.82396V49.1198H10.717H11.6101V50.0129H12.5032H13.3963V50.906H14.2894H15.1825H16.0756H16.9687H17.8617H18.7548H19.6479H20.541H21.4341V50.0129H22.3272H23.2203V50.906H22.3272V51.7991H21.4341H20.541V52.6922H19.6479V53.5852H18.7548H17.8617V54.4783H16.9687H16.0756V55.3714H15.1825H14.2894H13.3963V56.2645H12.5032H11.6101H10.717V57.1576H9.82396H8.93087H8.03779H7.1447V58.0507H8.03779H8.93087V58.9438H9.82396H10.717V59.8369H11.6101H12.5032V60.7299H13.3963H14.2894H15.1825V61.623H16.0756H16.9687H17.8617H18.7548H19.6479V62.5161H20.541H21.4341H22.3272H23.2203H24.1134H25.0064H25.8995H26.7926V61.623H27.6857H28.5788H29.4719H30.365V60.7299H31.2581H32.1511H33.0442V59.8369Z" fill="#F2F2F2"/>
<path d="M69.6608 74.1261H67.8746V73.233H66.0884V72.3399H64.3022V71.4468H62.5161V70.5537H61.623V68.7676H60.7299V66.9814H59.8368V65.1952H58.9437V63.409H58.0506V60.7298H57.1575V57.1574H56.2645V53.5851H55.3714V50.0127H56.2645V49.1196H58.0506V48.2265H59.8368V47.3335H60.7299V46.4404H61.623V45.5473H62.5161V44.6542H63.4092V42.868H64.3022V41.0818H65.1953V39.2957H66.0884V37.5095H66.9815V34.8302H67.8746V32.151H68.7677V27.6855H69.6608V23.2201H70.5539V18.7547H69.6608V16.9685H68.7677V16.0754H67.8746V15.1823H66.0884V14.2892H62.5161V13.3961H57.1575V12.5031H46.4405V13.3961H41.082V14.2892H37.5096V15.1823H35.7235V16.0754H34.8304V16.9685H33.9373V18.7547H33.0442V23.2201H33.9373V27.6855H34.8304V32.151H35.7235V34.8302H36.6165V37.5095H37.5096V39.2957H38.4027V41.0818H39.2958V42.868H40.1889V44.6542H41.082V45.5473H41.9751V46.4404H42.8681V47.3335H43.7612V48.2265H45.5474V49.1196H47.3336V50.0127H48.2267V53.5851H47.3336V57.1574H46.4405V60.7298H45.5474V63.409H44.6543V65.1952H43.7612V66.9814H42.8681V68.7676H41.9751V70.5537H41.082V71.4468H39.2958V72.3399H37.5096V73.233H35.7235V74.1261H33.9373V75.0192H33.0442V76.8053H34.8304V77.6984H38.4027V78.5915H43.7612V79.4846H59.8368V78.5915H65.1953V77.6984H68.7677V76.8053H70.5539V75.0192H69.6608V74.1261ZM37.5096 19.6478H38.4027V18.7547H41.9751V17.8616H47.3336V16.9685H56.2645V17.8616H61.623V18.7547H65.1953V19.6478H66.0884V20.5408H65.1953V21.4339H61.623V22.327H56.2645V23.2201H47.3336V22.327H41.9751V21.4339H38.4027V20.5408H37.5096V19.6478Z" fill="#F2F2F2"/>
</svg>
