<svg width="102" height="101" viewBox="0 0 102 101" fill="none" xmlns="http://www.w3.org/2000/svg">
<path d="M7.14455 18.7549V19.648V20.541V21.4341H8.03764V22.3272V23.2203H8.93073V22.3272V21.4341V20.541H9.82381V19.648V18.7549H10.7169V17.8618H11.61V16.9687H12.5031V16.0756H13.3962H14.2893V15.1825H15.1823V14.2894H16.0754H16.9685H17.8616V13.3963H18.7547H19.6478H20.5409V12.5033H21.434H22.327H23.2201H24.1132H25.0063V13.3963H25.8994H26.7925V14.2894H27.6856H28.5786V13.3963V12.5033H27.6856V11.6102H26.7925V10.7171H25.8994V9.824H25.0063V8.93091H24.1132H23.2201V8.03782H22.327H21.434H20.5409V7.14474H19.6478H18.7547H17.8616H16.9685V6.25165H16.0754H15.1823H14.2893H13.3962H12.5031H11.61V7.14474H10.7169H9.82381V8.03782H8.93073V8.93091H8.03764V9.824H7.14455V10.7171V11.6102V12.5033H6.25146V13.3963V14.2894V15.1825V16.0756V16.9687V17.8618H7.14455V18.7549Z" fill="#F2F2F2"/>
<path d="M100.919 49.1198V46.4405H100.026V44.6544H99.1327V42.8682H98.2396V41.9751H97.3465V41.082H96.4534V40.1889H95.5604V39.2958H94.6673V38.4028H91.988V37.5097H88.4157V36.6166H85.7364V35.7235H84.8433V34.8304H83.9502V33.0442H83.0571V29.4719H83.9502V24.1134H84.8433V17.8617H83.9502V14.2894H83.0571V11.6101H82.164V9.82396H81.271V8.93087H80.3779V7.1447H79.4848V6.25161H78.5917V5.35852H76.8055V4.46544H75.9124V3.57235H74.1263V2.67926H72.3401V1.78617H69.6608V0.893087H66.0885V0H56.2645V0.893087H54.4783V1.78617H51.7991V2.67926H58.9438V3.57235H63.4092V4.46544H59.8369V5.35852H56.2645V6.25161H53.5852V7.1447H50.906V8.03779H48.2267V8.93087H46.4405V9.82396H51.7991V8.93087H53.5852V9.82396H54.4783V11.6101H55.3714V14.2894H54.4783V18.7548H53.5852V23.2203H52.6922V24.1134H50.906V25.0064H47.3336V24.1134H43.7613V23.2203H40.1889V22.3272H38.4028V21.4341H36.6166V20.541H34.8304V19.6479H32.1511V18.7548H29.4719V17.8617H25.8995V16.9687H19.6479V17.8617H16.9687V18.7548H15.1825V19.6479H13.3963V20.541H12.5032V22.3272H11.6101V24.1134H10.717V27.6857H9.82396V32.1511H8.93087V41.082H8.03779V42.8682H7.1447V44.6544H6.25161V46.4405H5.35852V47.3336H4.46544V48.2267H3.57235V49.1198H2.67926V50.0129H1.78617V50.906H3.57235V51.7991H5.35852V52.6922H9.82396V51.7991H11.6101V50.906H13.3963V50.0129H14.2894V49.1198H15.1825V48.2267H16.0756V47.3336H16.9687V46.4405H17.8617V45.5475H18.7548V43.7613H19.6479V42.8682H21.4341V41.9751H23.2203V41.082H25.0064V40.1889H26.7926V41.9751H25.8995V44.6544H25.0064V46.4405H24.1134V50.0129H23.2203V55.3714H24.1134V53.5852H25.0064V52.6922H25.8995V51.7991H27.6857V50.906H28.5788V50.0129H29.4719V49.1198H30.365V48.2267H32.1511V47.3336H33.9373V46.4405H38.4028V47.3336H39.2958V48.2267H38.4028V50.0129H37.5097V50.906H36.6166V51.7991H34.8304V52.6922H33.9373V53.5852H33.0442V54.4783H31.2581V55.3714H30.365V56.2645H28.5788V57.1576H27.6857V58.0507H25.8995V58.9438H25.0064V59.8369H23.2203V60.7299H22.3272V61.623H21.4341V62.5161H19.6479V63.4092H18.7548V64.3023H16.9687V65.1954H16.0756V66.0885H14.2894V66.9815H13.3963V68.7677H11.6101V69.6608H10.717V70.5539H9.82396V71.447H8.93087V72.3401H8.03779V74.1262H7.1447V75.0193H6.25161V75.9124H5.35852V77.6986H4.46544V79.4848H3.57235V81.2709H2.67926V83.0571H1.78617V86.6295H0.893087V89.3087H0V94.6673H0.893087V93.7742H1.78617V91.988H2.67926V91.0949H3.57235V90.2018H4.46544V92.8811H5.35852V94.6673H6.25161V96.4534H7.1447V97.3465H8.03779V98.2396H9.82396V99.1327H12.5032V100.026H18.7548V99.1327H20.541V98.2396H17.8617V97.3465H16.0756V96.4534H14.2894V95.5603H12.5032V94.6673H11.6101V92.8811H10.717V89.3087H11.6101V88.4156H12.5032V87.5226H14.2894V86.6295H16.9687V85.7364H20.541V84.8433H25.0064V83.9502H34.8304V83.0571H41.082V82.164H45.5475V81.2709H48.2267V80.3779H51.7991V79.4848H54.4783V78.5917H56.2645V77.6986H58.0507V76.8055H59.8369V75.9124H61.623V75.0193H63.4092V74.1262H64.3023V73.2332H66.0885V72.3401H66.9816V71.447H67.8746V70.5539H68.7677V69.6608H69.6608V71.447H68.7677V73.2332H67.8746V76.8055H68.7677V75.9124H69.6608V75.0193H70.5539V74.1262H71.447V73.2332H72.3401V72.3401H73.2332V71.447H74.1263V70.5539H75.0193V74.1262H74.1263V75.9124H73.2332V76.8055H72.3401V77.6986H71.447V78.5917H70.5539V79.4848H68.7677V80.3779H66.9816V81.2709H65.1954V82.164H71.447V81.2709H73.2332V80.3779H75.0193V79.4848H76.8055V78.5917H77.6986V77.6986H78.5917V76.8055H79.4848V75.9124H80.3779V75.0193H81.271V73.2332H82.164V72.3401H83.0571V75.0193H82.164V77.6986H81.271V79.4848H80.3779V81.2709H79.4848V83.9502H78.5917V85.7364H77.6986V87.5226H76.8055V88.4156H75.9124V89.3087H75.0193V90.2018H78.5917V89.3087H81.271V88.4156H83.0571V87.5226H83.9502V86.6295H85.7364V85.7364H86.6295V84.8433H87.5226V83.9502H88.4157V83.0571H89.3087V82.164H90.2018V80.3779H91.0949V79.4848H91.988V78.5917H92.8811V77.6986H93.7742V75.9124H94.6673V75.0193H95.5604V73.2332H96.4534V71.447H97.3465V68.7677H98.2396V66.9815H99.1327V64.3023H100.026V60.7299H100.919V56.2645H101.812V49.1198H100.919ZM59.8369 15.1825V10.717H62.5161V11.6101H64.3023V12.5032H65.1954V14.2894H66.0885V19.6479H63.4092V18.7548H61.623V17.8617H60.7299V16.0756H59.8369V15.1825ZM58.9438 30.365V29.4719H59.8369V28.5788H61.623V27.6857H67.8746V28.5788H69.6608V29.4719H71.447V30.365H72.3401V32.1511H73.2332V33.0442H74.1263V37.5097H73.2332V38.4028H72.3401V39.2958H69.6608V38.4028H68.7677V36.6166H67.8746V35.7235H66.9816V34.8304H62.5161V35.7235H61.623V36.6166H58.9438V35.7235H58.0507V34.8304H57.1576V31.2581H58.0507V30.365H58.9438ZM78.5917 15.1825V17.8617H77.6986V19.6479H76.8055V20.541H75.0193V21.4341H71.447V17.8617H72.3401V16.0756H73.2332V15.1825H75.0193V14.2894H78.5917V15.1825Z" fill="#F2F2F2"/>
<path d="M75.0191 83.0569V82.1638H74.126V83.0569H73.2329V83.95H72.3398V84.8431H71.4468V85.7362H70.5537H69.6606V86.6293H68.7675H67.8744V87.5223H66.9813H66.0882V88.4154H65.1951H64.3021H63.409V89.3085H62.5159H61.6228H60.7297H59.8366H58.9435H58.0504V88.4154H57.1574H56.2643V87.5223H55.3712H54.4781V86.6293H53.585V85.7362V84.8431H52.6919V83.95V83.0569H51.7988V83.95V84.8431V85.7362V86.6293V87.5223V88.4154H52.6919V89.3085V90.2016H53.585V91.0947H54.4781V91.9878H55.3712V92.8809H56.2643H57.1574V93.774H58.0504H58.9435V94.667H59.8366H60.7297H61.6228H62.5159H63.409H64.3021H65.1951H66.0882V93.774H66.9813H67.8744V92.8809H68.7675V91.9878H69.6606V91.0947H70.5537V90.2016H71.4468V89.3085V88.4154H72.3398V87.5223V86.6293H73.2329V85.7362H74.126V84.8431V83.95H75.0191V83.0569Z" fill="#F2F2F2"/>
</svg>
